2014001_C1_03_grf
version=1
nRows=18
nColumns=19
inDegrees=no
endheader
time	ground_force_1_vx	ground_force_1_vy	ground_force_1_vz	ground_force_1_px	ground_force_1_py	ground_force_1_pz	ground_force_1_mx	ground_force_1_my	ground_force_1_mz	ground_force_2_vx	ground_force_2_vy	ground_force_2_vz	ground_force_2_px	ground_force_2_py	ground_force_2_pz	ground_force_2_mx	ground_force_2_my	ground_force_2_mz
      3.67500000	      0.00000000	      0.00000000	      0.00000000	      0.00000000	      0.00000000	      0.00000000	      0.00000000	      0.00000000	      0.00000000	      2.19197099	     72.93401984	      4.42663655	      0.19238373	     -0.00200000	      0.78405589	     -0.00000000	     -0.03444819	      0.00000000
      3.67600000	      0.00000000	      0.00000000	      0.00000000	      0.00000000	      0.00000000	      0.00000000	      0.00000000	      0.00000000	      0.00000000	      2.18092399	     72.20046315	      4.33410108	      0.19234351	     -0.00200000	      0.78411882	      0.00000000	     -0.03533111	      0.00000000
      3.67700000	      0.00000000	      0.00000000	      0.00000000	      0.00000000	      0.00000000	      0.00000000	      0.00000000	      0.00000000	      0.00000000	      2.16956155	     71.47590630	      4.24008314	      0.19230380	     -0.00200000	      0.78418417	      0.00000000	     -0.03614773	      0.00000000
      3.67800000	      0.00000000	      0.00000000	      0.00000000	      0.00000000	      0.00000000	      0.00000000	      0.00000000	      0.00000000	      0.00000000	      2.15794570	     70.75854018	      4.14490737	      0.19226453	     -0.00200000	      0.78425162	      0.00000000	     -0.03691670	      0.00000000
      3.67900000	      0.00000000	      0.00000000	      0.00000000	      0.00000000	      0.00000000	      0.00000000	      0.00000000	      0.00000000	      0.00000000	      2.14601504	     70.05016087	      4.04832549	      0.19222586	     -0.00200000	      0.78432188	      0.00000000	     -0.03763158	      0.00000000
      3.68000000	      0.00000000	      0.00000000	      0.00000000	      0.00000000	      0.00000000	      0.00000000	      0.00000000	      0.00000000	      0.00000000	      2.13383725	     69.34893969	      3.95065434	      0.19218767	     -0.00200000	      0.78439448	      0.00000000	     -0.03830726	      0.00000000
      3.68100000	      0.00000000	      0.00000000	      0.00000000	      0.00000000	      0.00000000	      0.00000000	      0.00000000	      0.00000000	      0.00000000	      2.12136058	     68.65658471	      3.85167301	      0.19215008	     -0.00200000	      0.78447015	      0.00000000	     -0.03893887	      0.00000000
      3.68200000	      0.00000000	      0.00000000	      0.00000000	      0.00000000	      0.00000000	      0.00000000	      0.00000000	      0.00000000	      0.00000000	      2.10865592	     67.97124445	      3.75168584	      0.19211292	     -0.00200000	      0.78454832	      0.00000000	     -0.03953918	      0.00000000
      3.68300000	      0.00000000	      0.00000000	      0.00000000	      0.00000000	      0.00000000	      0.00000000	      0.00000000	      0.00000000	      0.00000000	      2.09569023	     67.29455851	      3.65049187	      0.19207623	     -0.00200000	      0.78462971	      0.00000000	     -0.04010501	      0.00000000
      3.68400000	      0.00000000	      0.00000000	      0.00000000	      0.00000000	      0.00000000	      0.00000000	      0.00000000	      0.00000000	      0.00000000	      2.08254419	     66.62469171	      3.54837328	      0.19203980	     -0.00200000	      0.78471371	      0.00000000	     -0.04064691	      0.00000000
      3.68500000	      0.00000000	      0.00000000	      0.00000000	      0.00000000	      0.00000000	      0.00000000	      0.00000000	      0.00000000	      0.00000000	      2.06921808	     65.96323149	      3.44515610	      0.19200358	     -0.00200000	      0.78480098	      0.00000000	     -0.04116432	      0.00000000
      3.68600000	      0.00000000	      0.00000000	      0.00000000	      0.00000000	      0.00000000	      0.00000000	      0.00000000	      0.00000000	      0.00000000	      2.05578916	     65.30839484	      3.34111191	      0.19196742	     -0.00200000	      0.78489081	      0.00000000	     -0.04166683	      0.00000000
      3.68700000	      0.00000000	      0.00000000	      0.00000000	      0.00000000	      0.00000000	      0.00000000	      0.00000000	      0.00000000	      0.00000000	      2.04229199	     64.66175616	      3.23610567	      0.19193128	     -0.00200000	      0.78498376	      0.00000000	     -0.04215631	      0.00000000
      3.68800000	      0.00000000	      0.00000000	      0.00000000	      0.00000000	      0.00000000	      0.00000000	      0.00000000	      0.00000000	      0.00000000	      2.02879203	     64.02161065	      3.13038938	      0.19189512	     -0.00200000	      0.78507910	      0.00000000	     -0.04264042	      0.00000000
      3.68900000	      0.00000000	      0.00000000	      0.00000000	      0.00000000	      0.00000000	      0.00000000	      0.00000000	      0.00000000	      0.00000000	      2.01535688	     63.38950666	      3.02386731	      0.19185894	     -0.00200000	      0.78517736	      0.00000000	     -0.04312527	      0.00000000
      3.69000000	      0.00000000	      0.00000000	      0.00000000	      0.00000000	      0.00000000	      0.00000000	      0.00000000	      0.00000000	      0.00000000	      2.00202833	     62.76376545	      2.91677378	      0.19182273	     -0.00200000	      0.78527791	      0.00000000	     -0.04361692	      0.00000000
      3.69100000	      0.00000000	      0.00000000	      0.00000000	      0.00000000	      0.00000000	      0.00000000	      0.00000000	      0.00000000	      0.00000000	      1.98889473	     62.14584084	      2.80907089	      0.19178650	     -0.00200000	      0.78538126	      0.00000000	     -0.04412430	      0.00000000
      3.69200000	      0.00000000	      0.00000000	      0.00000000	      0.00000000	      0.00000000	      0.00000000	      0.00000000	      0.00000000	      0.00000000	      1.97596047	     61.53401826	      2.70097461	      0.19175023	     -0.00200000	      0.78548671	      0.00000000	     -0.04465006	      0.00000000
